# xmcd
#
# Track frame offsets:
#	150
#	10652
#	25457
#	45345
#	57197
#	75955
#	88210
#	100597
#	115115
#	130752
#	145960
#	156992
#
# Disc length: 2191 seconds
#
# Revision: 1
# Processed by: cddbd v1.5.1PL0 Copyright (c) Steve Scherf et al.
# Submitted via: audiograbber 1.83.01
#
DISCID=8b088d0c
DTITLE=ANDRÉ MELO - REVOADA
DYEAR=1900
DGENRE=
TTITLE0=AS CEGONHAS DO RIO NILO
TTITLE1=LÁ NO INTERIOR
TTITLE2=TERRA ESPERANÇA
TTITLE3=VÔO COLORIDO
TTITLE4=PENTIMENTO
TTITLE5=BEM-TE-VI VOANDO
TTITLE6=UIRAPURU
TTITLE7=REVOADA
TTITLE8=VIDA CIGANA
TTITLE9=ESTRELA SOLITÁRIA
TTITLE10=TE ENCONTREI FABIANA
TTITLE11=SINCRONIA
EXTD=
EXTT0=
EXTT1=
EXTT2=
EXTT3=
EXTT4=
EXTT5=
EXTT6=
EXTT7=
EXTT8=
EXTT9=
EXTT10=
EXTT11=
PLAYORDER=
